PathFileType	4	(X/Y/Z)	C:\Users\Basilio\Documents\Thesis Gigler\squatting_fais\c3dfiles\073\SLS_back_pre4\markers_experimental.trc
DataRate	CameraRate	NumFrames	NumMarkers	Units	OrigDataRate	OrigDataStartFrame	OrigNumFrames
200.000000	200.000000	4	61	mm	200.000000	167	1341
Frame#	Time	FHD			LBHD			RBHD			C7			T10			CLAV			LSHO			LUUPA			LMUPA			LDUPA			LLEP			LMEP			LRAD			LUL			LRFIN			RSHO			RUPA1			RMUPA			RDUPA			RLEP			RMEP			RUL			RUFIN			LASI			RASI			USACR			LSACR			RSACR			LTHI1			LTHI2			LTHI3			LTHI4			LLFC			LTIB1			LTIB2			LTIB3			LTIB4			LLMAL			LMMAL			LHEE			LMT1			LMT2			LMT5			RTHI			RTHI2			RTHI3			RTHI4			RLFC			RMFC			RTIB1			RTIB2			RTIB3			RTIB4			RLMAL			RMMAL			RHEE			RMT1			RMT2			RMT5			LMFC			RRAD			
		X1	Y1	Z1	X2	Y2	Z2	X3	Y3	Z3	X4	Y4	Z4	X5	Y5	Z5	X6	Y6	Z6	X7	Y7	Z7	X8	Y8	Z8	X9	Y9	Z9	X10	Y10	Z10	X11	Y11	Z11	X12	Y12	Z12	X13	Y13	Z13	X14	Y14	Z14	X15	Y15	Z15	X16	Y16	Z16	X17	Y17	Z17	X18	Y18	Z18	X19	Y19	Z19	X20	Y20	Z20	X21	Y21	Z21	X22	Y22	Z22	X23	Y23	Z23	X24	Y24	Z24	X25	Y25	Z25	X26	Y26	Z26	X27	Y27	Z27	X28	Y28	Z28	X29	Y29	Z29	X30	Y30	Z30	X31	Y31	Z31	X32	Y32	Z32	X33	Y33	Z33	X34	Y34	Z34	X35	Y35	Z35	X36	Y36	Z36	X37	Y37	Z37	X38	Y38	Z38	X39	Y39	Z39	X40	Y40	Z40	X41	Y41	Z41	X42	Y42	Z42	X43	Y43	Z43	X44	Y44	Z44	X45	Y45	Z45	X46	Y46	Z46	X47	Y47	Z47	X48	Y48	Z48	X49	Y49	Z49	X50	Y50	Z50	X51	Y51	Z51	X52	Y52	Z52	X53	Y53	Z53	X54	Y54	Z54	X55	Y55	Z55	X56	Y56	Z56	X57	Y57	Z57	X58	Y58	Z58	X59	Y59	Z59	X60	Y60	Z60	X61	Y61	Z61	

168	0.835	-159.9185638427735	1678.37646484375	-768.2796630859377	-294.7969360351563	1650.158935546875	-791.3250122070315	-316.6316528320313	1633.618530273438	-657.4293212890626	-351.6137390136719	1531.794311523438	-718.0910034179689	-414.8082275390626	1199.458374023438	-726.2086791992189	-230.1166992187501	1444.079956054688	-721.3718872070314	-266.4849853515626	1495.42529296875	-862.0593872070315	-185.993392944336	1420.165771484375	-954.8492431640627	-145.2268524169922	1441.07958984375	-933.507507324219	-123.3084945678711	1394.059448242188	-965.9655761718752	-18.17663192749024	1371.28271484375	-969.1656494140627	-21.44158935546875	1314.402587890625	-926.531433105469	236.8950958251954	1403.799682617188	-848.1372680664065	243.3441009521485	1400.023315429688	-922.5000000000002	319.4964904785157	1412.267700195313	-838.2581787109377	-242.2201843261719	1484.466796875	-576.2605590820314	-151.7213134765625	1376.991821289063	-480.0288085937501	-111.9828567504883	1399.67138671875	-494.3524169921876	-88.94637298583986	1348.127075195313	-474.1253356933595	2.71012568473816	1330.628173828125	-474.0805053710939	-0.6575025320053102	1279.204223632813	-540.0202636718751	261.0239562988282	1382.897216796875	-521.0302734375001	341.0369262695313	1404.91650390625	-599.0324096679689	-270.9435424804688	1025.542358398438	-862.906188964844	-252.4107818603516	1022.889465332031	-614.0879516601564	-440.5085449218751	1098.645874023438	-725.1661987304689	-455.5286560058595	1070.59765625	-752.9339599609376	-456.5145263671876	1068.847900390625	-696.2411499023439	-269.0697631835938	702.4158325195314	-904.4395751953127	-223.3376159667969	632.4233398437501	-886.6666259765627	-182.790283203125	642.3551635742189	-860.1893310546877	-246.5463256835938	577.5366210937501	-876.7006835937502	-254.1058502197266	532.1672973632814	-874.7194824218752	-396.7383422851564	411.9834594726564	-821.4104003906252	-456.2105712890626	451.4695129394532	-871.9947509765627	-448.364715576172	412.8422851562501	-851.8868408203127	-520.5697631835939	386.2931518554689	-815.5203247070315	-653.4313354492189	404.3801879882814	-839.6735839843752	-622.2814941406251	402.4460754394532	-754.4429321289064	-694.0030517578126	456.1878662109376	-794.6257934570315	-646.8384399414064	238.7812957763672	-752.9298095703126	-652.3508911132814	234.1965026855469	-791.1560668945315	-686.3327026367189	261.4946289062501	-842.1589965820315	-345.5068359375001	794.9119262695315	-553.1657104492189	-310.1715698242188	739.3572998046876	-559.0911865234376	-276.8200988769532	740.9081420898439	-561.1530761718751	-336.6184692382813	664.3120117187501	-583.4688720703126	-320.1199340820313	514.0592041015626	-611.8171997070314	-319.8518981933594	513.0734863281251	-741.3224487304689	-286.5310668945313	357.8099060058594	-714.3851928710939	-308.8915100097657	270.8918151855469	-654.1236572265626	-285.7363586425782	272.5425415039063	-696.6499023437501	-307.1951904296876	231.4138183593751	-732.5396118164064	-360.2081298828126	100.18310546875	-689.4036865234376	-356.1248474121094	126.9199295043946	-773.1715087890627	-430.8266906738282	81.07289886474611	-744.8783569335939	-206.6976470947266	54.68170547485353	-761.2518920898439	-205.9215240478516	52.22850799560548	-719.7313232421876	-248.4540710449219	35.25036621093751	-670.8923950195314	nan	nan	nan	nan	nan	nan	
169	0.84	-159.5978546142578	1678.282348632813	-768.0134887695315	-294.6282348632813	1650.203735351563	-791.0991821289065	-316.5110168457032	1633.561767578125	-657.1903076171876	-351.5049133300782	1531.795532226563	-717.9940185546876	-414.8419189453126	1199.54150390625	-726.2671508789064	-229.9924468994141	1444.042358398438	-721.2951660156251	-266.3840332031251	1495.468627929688	-861.9683227539065	-185.9410858154297	1420.219482421875	-954.7258911132815	-145.1730194091797	1441.103515625	-933.402038574219	-123.1474304199219	1394.059448242188	-965.8839111328127	-18.11772537231446	1371.270874023438	-969.1133422851565	-21.38932991027832	1314.3173828125	-926.4737548828127	236.9829406738282	1403.689697265625	-848.0549926757815	243.4588928222657	1399.86767578125	-922.4030761718752	319.5917358398438	1412.046264648438	-838.2015380859377	-242.0976257324219	1484.421752929688	-576.0814208984376	-151.6946411132813	1376.89453125	-479.9167480468751	-111.951286315918	1399.533325195313	-494.2287597656251	-88.9085159301758	1347.953857421875	-473.9887084960939	2.719001770019532	1330.506591796875	-473.9689941406251	-0.6289886236190797	1279.107666015625	-539.9668579101564	261.0386962890626	1382.766479492188	-520.9348144531251	341.0711059570313	1404.84130859375	-598.8997802734376	-270.9558715820313	1025.55908203125	-862.8172607421877	-252.5500183105469	1022.935363769531	-613.9389648437501	-440.5538024902345	1098.67919921875	-725.2492065429689	-455.5306701660157	1070.639038085938	-753.0219116210939	-456.5676879882814	1068.897705078125	-696.2874145507814	-269.1802062988282	702.4275512695314	-904.4766845703127	-223.4690856933594	632.4155273437501	-886.7498779296877	-182.9837799072266	642.3375854492189	-860.2487792968752	-246.7214508056641	577.5084228515626	-876.7131958007815	-254.2570800781251	532.1239013671876	-874.6937255859377	-396.958709716797	412.0498657226564	-821.4259033203127	-456.5836181640626	451.5382690429689	-872.024841308594	-448.5291137695314	412.8995666503907	-851.917907714844	-520.7935180664064	386.371551513672	-815.579528808594	-653.6638793945314	404.512908935547	-839.6898193359377	-622.5320434570314	402.5950317382814	-754.4263305664064	-694.2056274414064	456.3075561523439	-794.6162109375002	-646.8798828125001	238.9229888916016	-753.1428833007814	-650.6322631835939	235.2916412353516	-791.6346435546877	-686.6749877929689	261.6767883300782	-842.1511230468752	-345.7332153320313	794.9215087890627	-553.2017822265626	-310.3795471191407	739.3584594726564	-559.0258178710939	-277.0029907226563	740.8940429687501	-561.0106201171876	-336.8106079101563	664.3395996093751	-583.4743041992189	-320.3291625976563	514.0588989257814	-611.8230590820314	-320.4083251953126	513.2335205078126	-741.4377441406251	-286.5918884277344	357.8633728027344	-714.3796386718751	-308.9773864746094	270.8599853515626	-654.1762695312501	-285.8006591796876	272.5583190917969	-696.6187133789064	-307.1798095703126	231.4493560791016	-732.5046386718751	-360.2261962890626	100.1778869628907	-689.4119262695314	-356.1585693359376	126.8986434936524	-773.1231079101565	-430.8119506835939	81.08235931396486	-744.9298706054689	-206.6682739257813	54.66793060302736	-761.2409057617189	-205.9171600341797	52.22906494140626	-719.7133178710939	-248.4522399902344	35.25121307373048	-670.8907470703126	nan	nan	nan	nan	nan	nan	
170	0.845	-159.633056640625	1678.326293945313	-767.8181152343751	-294.5154418945313	1650.269653320313	-790.8812255859377	-316.3628234863282	1633.548461914063	-656.9595336914064	-351.4039001464844	1531.860229492188	-717.8873901367189	-414.868865966797	1199.562744140625	-726.1826171875001	-230.011459350586	1443.958862304688	-721.2028808593751	-266.3136901855469	1495.486206054688	-861.8592529296877	-185.9057159423828	1420.262084960938	-954.6304931640627	-145.0726165771485	1441.137939453125	-933.2996826171877	-123.106559753418	1394.100219726563	-965.7605590820315	-18.09019851684571	1371.245727539063	-969.0812988281252	-21.39680099487305	1314.299072265625	-926.4231567382815	237.0459899902344	1403.544555664063	-847.9834594726565	243.546371459961	1399.715942382813	-922.2720947265627	319.6669921875001	1411.826171875	-838.120788574219	-242.0311279296876	1484.35595703125	-575.9911499023439	-151.6918029785157	1376.764526367188	-479.8710937500001	-111.8926391601563	1399.462646484375	-494.0653381347657	-88.87094879150392	1347.844360351563	-473.9613647460939	2.741238832473755	1330.326904296875	-473.8807067871095	-0.6217121481895448	1278.989990234375	-539.8091430664064	261.0792541503907	1382.613159179688	-520.7975463867189	341.1120605468751	1404.7265625	-598.8018798828126	-270.8847045898438	1025.578491210938	-862.726257324219	-252.7274627685547	1022.9453125	-613.8698120117189	-440.6353149414064	1098.757934570313	-725.3089599609376	-455.5666503906251	1070.7001953125	-753.1157226562501	-456.717498779297	1068.92138671875	-696.3834228515626	-269.2933044433594	702.4525756835939	-904.4859619140627	-223.7018280029297	632.4364013671876	-886.7896118164065	-183.1882781982422	642.2962646484376	-860.3103027343752	-246.8977508544922	577.5105590820314	-876.7301025390627	-254.4742126464844	532.1683349609376	-874.753356933594	-397.2342224121095	412.0664367675782	-821.4438476562502	-456.7983703613282	451.6173400878907	-872.0554809570315	-448.7232666015626	412.9527587890626	-851.854431152344	-521.0339965820314	386.4672241210939	-815.5691528320315	-653.9751586914064	404.6268920898439	-839.7153930664065	-622.7831420898439	402.7123413085939	-754.4669799804689	-694.4627075195314	456.4659423828126	-794.634216308594	-648.0953369140626	239.0876770019532	-752.4244995117189	-650.5015258789064	235.7014312744141	-791.6861572265627	-686.5230102539064	261.8763427734376	-842.299743652344	-345.9616394042969	794.9174804687502	-553.2074584960939	-310.6154785156251	739.3726806640626	-558.9739379882814	-277.2492370605469	740.8516845703126	-560.9307250976564	-337.0545349121094	664.3183593750001	-583.4548339843751	-320.5487060546876	514.0615234375001	-611.8079833984376	-320.6230163574219	513.3176879882814	-741.4981079101564	-286.6765747070313	357.8580017089844	-714.3922729492189	-309.0671081542969	270.9204101562501	-654.1354980468751	-285.8766174316407	272.5933837890626	-696.6211547851564	-307.2329711914063	231.4486999511719	-732.4808349609376	-360.2326049804688	100.195915222168	-689.3999023437501	-356.1023559570313	126.8786544799805	-773.097351074219	-430.8310546875001	81.05770111083986	-744.9299316406251	-206.6890716552735	54.67268753051759	-761.2475585937501	-205.9222106933594	52.17025756835939	-719.7740478515626	-248.4566802978516	35.23453521728516	-670.9037475585939	nan	nan	nan	nan	nan	nan	
171	0.85	-159.244125366211	1678.303100585938	-767.6520385742189	-294.3063354492188	1650.272583007813	-790.7449951171877	-316.1912231445313	1633.503784179688	-656.7295532226564	-351.2805786132813	1531.788452148438	-717.7765502929689	-414.8687744140626	1199.63330078125	-726.1925048828126	-229.9313659667969	1443.889038085938	-721.1428222656251	-266.1911621093751	1495.5458984375	-861.7554931640627	-185.7211456298828	1420.289916992188	-954.579772949219	-144.9528198242188	1441.164428710938	-933.2163696289065	-123.0490951538086	1394.177612304688	-965.7064208984377	-18.01240539550782	1371.232421875	-969.0076293945315	-21.34119987487793	1314.2783203125	-926.3522949218752	237.1191406250001	1403.363037109375	-847.8710937500002	243.6426391601563	1399.622436523438	-922.1613769531252	319.7684020996094	1411.63671875	-838.0076293945315	-241.975326538086	1484.323608398438	-575.8923339843751	-151.670394897461	1376.678588867188	-479.7566833496095	-111.8486709594727	1399.336059570313	-493.9052734375001	-88.86209869384767	1347.693115234375	-473.842742919922	2.791944265365601	1330.205688476563	-473.8199157714845	-0.587796986103058	1278.895141601563	-539.7459716796876	261.0172119140626	1382.458374023438	-520.6609497070314	341.1492309570313	1404.579223632813	-598.7576904296876	-270.9404602050782	1025.568115234375	-862.6138916015627	-252.8539733886719	1022.949768066406	-613.7476196289064	-440.6786193847657	1098.8603515625	-725.4068603515626	-455.5755615234376	1070.753784179688	-753.1684570312501	-456.8284301757814	1068.983154296875	-696.5041503906251	-269.4461059570313	702.4569702148439	-904.5263671875002	-223.872787475586	632.4024658203126	-886.7891235351565	-183.3448791503907	642.2131347656251	-860.2609863281252	-247.0451202392579	577.5427246093751	-876.7402343750002	-254.7227478027344	532.1816406250001	-874.7556152343752	-397.4708251953126	412.178192138672	-821.4262695312502	-456.9016418457032	451.7415466308595	-872.204772949219	-449.0456542968751	413.0560607910157	-851.8386840820315	-521.2978515625001	386.5616455078126	-815.6322021484377	-654.2646484375001	404.8339233398439	-839.7822875976565	-623.0007324218751	402.8287353515626	-754.4930419921876	-694.6879882812501	456.5919189453126	-794.6212158203127	-647.4909667968751	239.2343139648438	-753.1218261718751	-651.1897583007814	235.6464996337891	-791.5813598632815	-687.3300170898439	262.0230712890626	-842.1439208984377	-346.2154846191407	794.8765258789065	-553.2307128906251	-310.8547973632813	739.3674316406251	-558.9389038085939	-277.4902343750001	740.8264160156251	-560.8385620117189	-337.2130126953126	664.3176269531251	-583.5330200195314	-320.7505493164063	514.0671386718751	-611.8816528320314	-318.9367065429688	512.5709228515626	-740.9883422851564	-286.7494812011719	357.8571472167969	-714.3229980468751	-309.1619262695313	270.9298706054688	-654.1084594726564	-285.9535522460938	272.5930786132813	-696.5957641601564	-307.2415771484376	231.4618835449219	-732.5049438476564	-360.2625122070313	100.2034454345703	-689.4061279296876	-356.0641479492188	126.8866958618164	-773.1711425781252	-430.8385314941407	81.06552124023439	-744.9377441406251	-206.6902465820313	54.67402648925783	-761.2488403320314	-205.9172973632813	52.22892379760744	-719.7298583984376	-248.4560852050782	35.2339096069336	-670.9017944335939	nan	nan	nan	nan	nan	nan	
